# xmcd CD database file
#
# Track frame offsets:
#	150
#	26418
#	48382
#	79557
#	107616
#	130154
#	149460
#	164740
#	189677
#	211727
#	250340
#	271931
#
# Disc length: 4015 seconds
#
# Revision: 4
# Processed by: cddbd v1.5.2PL0 Copyright (c) Steve Scherf et al.
# Submitted via: CDex 1.51
#
DISCID=a60fad0c
DTITLE=Frank Herbert - DUNE - Der Wüstenplanet - Teil1 - CD09
DYEAR=2008
DGENRE=Hörbuch
TTITLE0=090 - DUNE - Der Wüstenplanet - Teil1
TTITLE1=091 - DUNE - Der Wüstenplanet - Teil1
TTITLE2=092 - DUNE - Der Wüstenplanet - Teil1
TTITLE3=093 - DUNE - Der Wüstenplanet - Teil1
TTITLE4=094 - DUNE - Der Wüstenplanet - Teil1
TTITLE5=095 - DUNE - Der Wüstenplanet - Teil1
TTITLE6=096 - DUNE - Der Wüstenplanet - Teil1
TTITLE7=097 - DUNE - Der Wüstenplanet - Teil1
TTITLE8=098 - DUNE - Der Wüstenplanet - Teil1
TTITLE9=099 - DUNE - Der Wüstenplanet - Teil1
TTITLE10=100 - DUNE - Der Wüstenplanet - Teil1
TTITLE11=101 - DUNE - Der Wüstenplanet - Teil1
EXTD=YEAR: 2008
EXTT0=
EXTT1=
EXTT2=
EXTT3=
EXTT4=
EXTT5=
EXTT6=
EXTT7=
EXTT8=
EXTT9=
EXTT10=
EXTT11=
PLAYORDER=
